<svg width="192" height="192" viewBox="0 0 192 192" fill="none" xmlns="http://www.w3.org/2000/svg">
<rect width="192" height="192" fill="#E3C197"/>
<g clip-path="url(#clip0_30_2)">
<path d="M176.334 157.646L154.188 135.5L176.334 113.354C176.758 112.924 176.996 112.345 176.996 111.741C176.996 111.137 176.758 110.557 176.334 110.128L165.872 99.6661C165.444 99.2384 164.864 98.9981 164.259 98.9981C163.654 98.9981 163.074 99.2384 162.646 99.6661L140.5 121.812L118.354 99.6661C117.926 99.2384 117.346 98.9981 116.741 98.9981C116.136 98.9981 115.556 99.2384 115.128 99.6661L104.666 110.128C104.239 110.556 103.998 111.136 103.998 111.741C103.998 112.346 104.239 112.926 104.666 113.354L126.813 135.5L104.666 157.646C104.239 158.074 103.998 158.654 103.998 159.259C103.998 159.864 104.239 160.444 104.666 160.872L115.128 171.334C115.556 171.761 116.136 172.002 116.741 172.002C117.346 172.002 117.926 171.761 118.354 171.334L140.5 149.187L162.646 171.334C163.074 171.761 163.654 172.002 164.259 172.002C164.864 172.002 165.444 171.761 165.872 171.334L176.334 160.872C176.762 160.444 177.002 159.864 177.002 159.259C177.002 158.654 176.762 158.074 176.334 157.646Z" fill="#063DA8"/>
</g>
<g clip-path="url(#clip1_30_2)">
<rect x="23.5281" y="106.528" width="57.9437" height="57.9437" rx="28.9719" stroke="#D81D28" stroke-width="15.0562"/>
</g>
<defs>
<clipPath id="clip0_30_2">
<rect width="73" height="73" fill="white" transform="translate(104 99)"/>
</clipPath>
<clipPath id="clip1_30_2">
<rect width="73" height="73" fill="white" transform="translate(16 99)"/>
</clipPath>
</defs>
</svg>
